G04 EAGLE Gerber RS-274X export*
G75*
%MOMM*%
%FSLAX34Y34*%
%LPD*%
%INBottom Copper*%
%IPPOS*%
%AMOC8*
5,1,8,0,0,1.08239X$1,22.5*%
G01*
G04 Define Apertures*
%ADD10C,1.508000*%
%ADD11R,2.700000X2.700000*%
%ADD12C,1.524000*%
%ADD13C,0.508000*%
%ADD14C,0.254000*%
%ADD15C,0.711200*%
D10*
X-469900Y966400D03*
X-494900Y966400D03*
X-444400Y966400D03*
X-494900Y1111400D03*
X-444900Y1111400D03*
D11*
X-526900Y1041400D03*
X-412900Y1041400D03*
D10*
X-469900Y737800D03*
X-494900Y737800D03*
X-444400Y737800D03*
X-494900Y882800D03*
X-444900Y882800D03*
D11*
X-526900Y812800D03*
X-412900Y812800D03*
D10*
X-469900Y509200D03*
X-494900Y509200D03*
X-444400Y509200D03*
X-494900Y654200D03*
X-444900Y654200D03*
D11*
X-526900Y584200D03*
X-412900Y584200D03*
D10*
X-469900Y280600D03*
X-494900Y280600D03*
X-444400Y280600D03*
X-494900Y425600D03*
X-444900Y425600D03*
D11*
X-526900Y355600D03*
X-412900Y355600D03*
D10*
X469900Y966400D03*
X444900Y966400D03*
X495400Y966400D03*
X444900Y1111400D03*
X494900Y1111400D03*
D11*
X412900Y1041400D03*
X526900Y1041400D03*
D10*
X469900Y737800D03*
X444900Y737800D03*
X495400Y737800D03*
X444900Y882800D03*
X494900Y882800D03*
D11*
X412900Y812800D03*
X526900Y812800D03*
D10*
X469900Y509200D03*
X444900Y509200D03*
X495400Y509200D03*
X444900Y654200D03*
X494900Y654200D03*
D11*
X412900Y584200D03*
X526900Y584200D03*
D10*
X469900Y280600D03*
X444900Y280600D03*
X495400Y280600D03*
X444900Y425600D03*
X494900Y425600D03*
D11*
X412900Y355600D03*
X526900Y355600D03*
D12*
X-88900Y133458D02*
X-88900Y118218D01*
X-114300Y118218D02*
X-114300Y133458D01*
X-139700Y133458D02*
X-139700Y118218D01*
X-165100Y118218D02*
X-165100Y133458D01*
X-190500Y133458D02*
X-190500Y118218D01*
X-215900Y118218D02*
X-215900Y133458D01*
X-241300Y133458D02*
X-241300Y118218D01*
X-266700Y118218D02*
X-266700Y133458D01*
X-292100Y133458D02*
X-292100Y118218D01*
X-317500Y118218D02*
X-317500Y133458D01*
X-342900Y133458D02*
X-342900Y118218D01*
X-368300Y118218D02*
X-368300Y133458D01*
X-88900Y8782D02*
X-88900Y-6458D01*
X-114300Y-6458D02*
X-114300Y8782D01*
X-139700Y8782D02*
X-139700Y-6458D01*
X-165100Y-6458D02*
X-165100Y8782D01*
X-190500Y8782D02*
X-190500Y-6458D01*
X-215900Y-6458D02*
X-215900Y8782D01*
X-241300Y8782D02*
X-241300Y-6458D01*
X-266700Y-6458D02*
X-266700Y8782D01*
X-292100Y8782D02*
X-292100Y-6458D01*
X-317500Y-6458D02*
X-317500Y8782D01*
X-342900Y8782D02*
X-342900Y-6458D01*
X-368300Y-6458D02*
X-368300Y8782D01*
X368300Y118218D02*
X368300Y133458D01*
X342900Y133458D02*
X342900Y118218D01*
X317500Y118218D02*
X317500Y133458D01*
X292100Y133458D02*
X292100Y118218D01*
X266700Y118218D02*
X266700Y133458D01*
X241300Y133458D02*
X241300Y118218D01*
X215900Y118218D02*
X215900Y133458D01*
X190500Y133458D02*
X190500Y118218D01*
X165100Y118218D02*
X165100Y133458D01*
X139700Y133458D02*
X139700Y118218D01*
X114300Y118218D02*
X114300Y133458D01*
X88900Y133458D02*
X88900Y118218D01*
X368300Y8782D02*
X368300Y-6458D01*
X342900Y-6458D02*
X342900Y8782D01*
X317500Y8782D02*
X317500Y-6458D01*
X292100Y-6458D02*
X292100Y8782D01*
X266700Y8782D02*
X266700Y-6458D01*
X241300Y-6458D02*
X241300Y8782D01*
X215900Y8782D02*
X215900Y-6458D01*
X190500Y-6458D02*
X190500Y8782D01*
X165100Y8782D02*
X165100Y-6458D01*
X139700Y-6458D02*
X139700Y8782D01*
X114300Y8782D02*
X114300Y-6458D01*
X88900Y-6458D02*
X88900Y8782D01*
X-50800Y119380D02*
X-50800Y134620D01*
X-25400Y134620D02*
X-25400Y119380D01*
X0Y119380D02*
X0Y134620D01*
X25400Y134620D02*
X25400Y119380D01*
X50800Y119380D02*
X50800Y134620D01*
D13*
X469900Y679200D02*
X469900Y737800D01*
X471488Y739775D02*
X471488Y860425D01*
X493713Y882650D01*
X471488Y739775D02*
X469900Y737800D01*
X493713Y882650D02*
X494900Y882800D01*
X93663Y147638D02*
X95250Y146050D01*
X114300Y127000D01*
X93663Y147638D02*
X-6350Y147638D01*
X-25400Y128588D01*
X-25400Y127000D01*
X114300Y127000D02*
X114300Y125838D01*
X-469900Y215900D02*
X-469900Y280600D01*
X-44450Y147638D02*
X-26988Y130175D01*
X-44450Y147638D02*
X-355600Y147638D01*
X-26988Y130175D02*
X-25400Y127000D01*
X469900Y244475D02*
X469900Y280600D01*
X469900Y244475D02*
X373063Y147638D01*
X96838Y147638D01*
X95250Y146050D01*
X-342900Y125838D02*
X-355600Y138538D01*
X-355600Y147638D01*
X-388673Y165100D02*
X-419100Y165100D01*
X-388673Y165100D02*
X-371211Y147638D01*
X-355600Y147638D01*
X-419100Y165100D02*
X-469900Y215900D01*
X469900Y509200D02*
X469900Y629200D01*
X494900Y654200D01*
X469900Y679200D01*
D14*
X-493713Y898525D02*
X-493713Y965200D01*
X-493713Y898525D02*
X-430213Y835025D01*
X-430213Y217488D01*
X-400050Y187325D01*
X-493713Y965200D02*
X-494900Y966400D01*
D15*
X-400050Y187325D03*
D14*
X246063Y106363D02*
X265113Y87313D01*
X246063Y106363D02*
X209550Y106363D01*
X190500Y125413D01*
X190500Y125838D01*
D15*
X544513Y196850D03*
D14*
X443747Y87313D02*
X265113Y87313D01*
X544513Y188078D02*
X544513Y196850D01*
X544513Y188078D02*
X443747Y87313D01*
X-139700Y1588D02*
X-166688Y28575D01*
X-139700Y1588D02*
X-139700Y1162D01*
D15*
X-166688Y28575D03*
D14*
X-373063Y65088D02*
X-482600Y174625D01*
X-373063Y65088D02*
X-228600Y65088D01*
X-165100Y1588D01*
X-165100Y1162D01*
D15*
X-482600Y174625D03*
D14*
X496888Y896938D02*
X496888Y965200D01*
X495400Y966400D01*
D15*
X260350Y80963D03*
D14*
X551879Y841947D02*
X496888Y896938D01*
X444581Y80963D02*
X260350Y80963D01*
X444581Y80963D02*
X551879Y188260D01*
X551879Y841947D01*
X-495300Y736600D02*
X-495300Y669925D01*
X-544513Y620713D01*
X-544513Y217488D01*
X-377825Y50800D01*
X-290513Y50800D01*
X-495300Y736600D02*
X-494900Y737800D01*
D15*
X-290513Y50800D03*
D14*
X531813Y206375D02*
X531813Y219075D01*
X531813Y206375D02*
X425450Y100013D01*
X303213Y100013D01*
X296863Y106363D01*
X260350Y106363D01*
X241300Y125413D01*
X241300Y125838D01*
D15*
X531813Y219075D03*
D14*
X-444500Y671513D02*
X-444500Y736600D01*
X-444500Y671513D02*
X-509588Y606425D01*
X-509588Y290513D01*
X-512763Y287338D01*
X-512763Y193675D01*
X-377825Y58738D01*
X-260350Y58738D01*
X-258763Y57150D01*
X-444500Y736600D02*
X-444400Y737800D01*
D15*
X-258763Y57150D03*
D14*
X430213Y93663D02*
X544513Y207963D01*
X430213Y93663D02*
X298450Y93663D01*
X293688Y98425D01*
D15*
X293688Y98425D03*
D14*
X496888Y736313D02*
X495400Y737800D01*
X496888Y736313D02*
X496888Y668264D01*
X544513Y620639D02*
X544513Y207963D01*
X544513Y620639D02*
X496888Y668264D01*
X-493713Y508000D02*
X-493713Y441325D01*
X-457200Y404813D01*
X-457200Y320675D01*
X-457200Y160338D02*
X-368300Y71438D01*
X-220663Y71438D01*
X-219075Y69850D01*
X-493713Y508000D02*
X-494900Y509200D01*
D15*
X-457200Y320675D03*
X-457200Y160338D03*
X-219075Y69850D03*
X400050Y196850D03*
D14*
X395288Y201613D01*
X444500Y508800D02*
X444900Y509200D01*
X444500Y508800D02*
X444500Y441251D01*
X395288Y392039D01*
X395288Y201613D01*
X-388938Y106363D02*
X-392113Y106363D01*
X-388938Y106363D02*
X-360363Y77788D01*
X-190500Y77788D01*
X-188913Y76200D01*
D15*
X-392113Y106363D03*
X-188913Y76200D03*
D14*
X423863Y106363D02*
X508000Y190500D01*
X423863Y106363D02*
X336550Y106363D01*
X317500Y125413D01*
X317500Y125838D01*
X496888Y507713D02*
X495400Y509200D01*
X496888Y507713D02*
X496888Y439664D01*
X508000Y428551D02*
X508000Y190500D01*
X508000Y428551D02*
X496888Y439664D01*
X-493713Y279400D02*
X-493713Y227013D01*
X-357188Y90488D01*
X-134938Y90488D01*
X-493713Y279400D02*
X-494900Y280600D01*
D15*
X-133350Y91059D03*
D14*
X-134366Y91059D01*
X-134938Y90488D01*
X-444500Y280988D02*
X-454025Y280988D01*
X-465138Y292100D01*
X-500063Y292100D01*
X-506413Y285750D01*
X-506413Y231775D01*
X-444400Y280600D02*
X-444500Y280988D01*
D15*
X-122238Y91059D03*
D14*
X-122933Y91059D01*
X-130299Y83693D01*
X-358331Y83693D01*
X-506413Y231775D01*
X495300Y215900D02*
X495300Y279400D01*
X495300Y215900D02*
X405238Y125838D01*
X368300Y125838D01*
X495300Y279400D02*
X495400Y280600D01*
X-88900Y1588D02*
X-123825Y36513D01*
X-88900Y1588D02*
X-88900Y1162D01*
D15*
X-123825Y36513D03*
D14*
X-114300Y1588D02*
X-163513Y50800D01*
X-114300Y1588D02*
X-114300Y1162D01*
D15*
X-163513Y50800D03*
D14*
X446088Y754063D02*
X446088Y882650D01*
X446088Y754063D02*
X457200Y742950D01*
X457200Y350838D01*
X482600Y325438D01*
X446088Y882650D02*
X444900Y882800D01*
D15*
X482600Y325438D03*
D14*
X-298450Y106363D02*
X-317500Y125413D01*
X-298450Y106363D02*
X-20638Y106363D01*
X-19844Y107156D02*
X0Y127000D01*
X-19844Y107156D02*
X-20638Y106363D01*
X-317500Y125413D02*
X-317500Y125838D01*
X120650Y106363D02*
X139700Y125413D01*
X120650Y106363D02*
X-19050Y106363D01*
X139700Y125413D02*
X139700Y125838D01*
X-19050Y106363D02*
X-19844Y107156D01*
X39688Y87313D02*
X127000Y87313D01*
X39688Y87313D02*
X38100Y85725D01*
X25400Y98425D01*
X-292100Y98425D01*
X127000Y87313D02*
X165100Y125413D01*
X165100Y125838D01*
D15*
X-292100Y98425D03*
X38100Y85725D03*
D14*
X444500Y309563D02*
X444500Y425450D01*
X444500Y309563D02*
X420688Y285750D01*
X420688Y217488D01*
X444500Y425450D02*
X444900Y425600D01*
D15*
X420688Y217488D03*
M02*
