G04 EAGLE Gerber RS-274X export*
G75*
%MOMM*%
%FSLAX34Y34*%
%LPD*%
%INTop Copper*%
%IPPOS*%
%AMOC8*
5,1,8,0,0,1.08239X$1,22.5*%
G01*
G04 Define Apertures*
%ADD10C,1.508000*%
%ADD11R,2.700000X2.700000*%
%ADD12C,1.524000*%
%ADD13C,0.508000*%
%ADD14C,0.254000*%
%ADD15C,0.711200*%
D10*
X-469900Y966400D03*
X-494900Y966400D03*
X-444400Y966400D03*
X-494900Y1111400D03*
X-444900Y1111400D03*
D11*
X-526900Y1041400D03*
X-412900Y1041400D03*
D10*
X-469900Y737800D03*
X-494900Y737800D03*
X-444400Y737800D03*
X-494900Y882800D03*
X-444900Y882800D03*
D11*
X-526900Y812800D03*
X-412900Y812800D03*
D10*
X-469900Y509200D03*
X-494900Y509200D03*
X-444400Y509200D03*
X-494900Y654200D03*
X-444900Y654200D03*
D11*
X-526900Y584200D03*
X-412900Y584200D03*
D10*
X-469900Y280600D03*
X-494900Y280600D03*
X-444400Y280600D03*
X-494900Y425600D03*
X-444900Y425600D03*
D11*
X-526900Y355600D03*
X-412900Y355600D03*
D10*
X469900Y966400D03*
X444900Y966400D03*
X495400Y966400D03*
X444900Y1111400D03*
X494900Y1111400D03*
D11*
X412900Y1041400D03*
X526900Y1041400D03*
D10*
X469900Y737800D03*
X444900Y737800D03*
X495400Y737800D03*
X444900Y882800D03*
X494900Y882800D03*
D11*
X412900Y812800D03*
X526900Y812800D03*
D10*
X469900Y509200D03*
X444900Y509200D03*
X495400Y509200D03*
X444900Y654200D03*
X494900Y654200D03*
D11*
X412900Y584200D03*
X526900Y584200D03*
D10*
X469900Y280600D03*
X444900Y280600D03*
X495400Y280600D03*
X444900Y425600D03*
X494900Y425600D03*
D11*
X412900Y355600D03*
X526900Y355600D03*
D12*
X-88900Y133458D02*
X-88900Y118218D01*
X-114300Y118218D02*
X-114300Y133458D01*
X-139700Y133458D02*
X-139700Y118218D01*
X-165100Y118218D02*
X-165100Y133458D01*
X-190500Y133458D02*
X-190500Y118218D01*
X-215900Y118218D02*
X-215900Y133458D01*
X-241300Y133458D02*
X-241300Y118218D01*
X-266700Y118218D02*
X-266700Y133458D01*
X-292100Y133458D02*
X-292100Y118218D01*
X-317500Y118218D02*
X-317500Y133458D01*
X-342900Y133458D02*
X-342900Y118218D01*
X-368300Y118218D02*
X-368300Y133458D01*
X-88900Y8782D02*
X-88900Y-6458D01*
X-114300Y-6458D02*
X-114300Y8782D01*
X-139700Y8782D02*
X-139700Y-6458D01*
X-165100Y-6458D02*
X-165100Y8782D01*
X-190500Y8782D02*
X-190500Y-6458D01*
X-215900Y-6458D02*
X-215900Y8782D01*
X-241300Y8782D02*
X-241300Y-6458D01*
X-266700Y-6458D02*
X-266700Y8782D01*
X-292100Y8782D02*
X-292100Y-6458D01*
X-317500Y-6458D02*
X-317500Y8782D01*
X-342900Y8782D02*
X-342900Y-6458D01*
X-368300Y-6458D02*
X-368300Y8782D01*
X368300Y118218D02*
X368300Y133458D01*
X342900Y133458D02*
X342900Y118218D01*
X317500Y118218D02*
X317500Y133458D01*
X292100Y133458D02*
X292100Y118218D01*
X266700Y118218D02*
X266700Y133458D01*
X241300Y133458D02*
X241300Y118218D01*
X215900Y118218D02*
X215900Y133458D01*
X190500Y133458D02*
X190500Y118218D01*
X165100Y118218D02*
X165100Y133458D01*
X139700Y133458D02*
X139700Y118218D01*
X114300Y118218D02*
X114300Y133458D01*
X88900Y133458D02*
X88900Y118218D01*
X368300Y8782D02*
X368300Y-6458D01*
X342900Y-6458D02*
X342900Y8782D01*
X317500Y8782D02*
X317500Y-6458D01*
X292100Y-6458D02*
X292100Y8782D01*
X266700Y8782D02*
X266700Y-6458D01*
X241300Y-6458D02*
X241300Y8782D01*
X215900Y8782D02*
X215900Y-6458D01*
X190500Y-6458D02*
X190500Y8782D01*
X165100Y8782D02*
X165100Y-6458D01*
X139700Y-6458D02*
X139700Y8782D01*
X114300Y8782D02*
X114300Y-6458D01*
X88900Y-6458D02*
X88900Y8782D01*
X-50800Y119380D02*
X-50800Y134620D01*
X-25400Y134620D02*
X-25400Y119380D01*
X0Y119380D02*
X0Y134620D01*
X25400Y134620D02*
X25400Y119380D01*
X50800Y119380D02*
X50800Y134620D01*
D13*
X469900Y280600D02*
X469900Y388938D01*
X471488Y390525D02*
X493214Y412251D01*
X471488Y390525D02*
X469900Y388938D01*
X493214Y412251D02*
X494900Y425600D01*
X469900Y392113D02*
X469900Y509200D01*
X469900Y392113D02*
X471488Y390525D01*
X493713Y884238D02*
X493713Y941388D01*
X469900Y965200D01*
X493713Y884238D02*
X494900Y882800D01*
X469900Y965200D02*
X469900Y966400D01*
X493713Y990600D02*
X493713Y1111250D01*
X493713Y990600D02*
X471488Y968375D01*
X493713Y1111250D02*
X494900Y1111400D01*
X471488Y968375D02*
X469900Y966400D01*
X-469900Y737800D02*
X-469900Y679450D01*
X-446088Y655638D01*
X-444900Y654200D01*
X-469900Y907800D02*
X-469900Y966400D01*
X-446088Y990600D02*
X-446088Y1111250D01*
X-446088Y990600D02*
X-468313Y968375D01*
X-446088Y1111250D02*
X-444900Y1111400D01*
X-468313Y968375D02*
X-469900Y966400D01*
X-469900Y509200D02*
X-469900Y457200D01*
X-446088Y533400D02*
X-446088Y652463D01*
X-446088Y533400D02*
X-468313Y511175D01*
X-446088Y652463D02*
X-444900Y654200D01*
X-468313Y511175D02*
X-469900Y509200D01*
X-469900Y457200D02*
X-444900Y432200D01*
X-444900Y425600D01*
X-469900Y368300D02*
X-469900Y280600D01*
X-469900Y368300D02*
X-444500Y393700D01*
X-444500Y425200D01*
X-444900Y425600D01*
X-469900Y737800D02*
X-444900Y762800D01*
X-444900Y882800D01*
X-469900Y907800D01*
D14*
X-349250Y20638D02*
X-368300Y1588D01*
X50800Y20638D02*
X69850Y20638D01*
X50800Y20638D02*
X-349250Y20638D01*
X69850Y20638D02*
X88900Y1588D01*
X-368300Y1588D02*
X-368300Y1162D01*
X88900Y1588D02*
X88900Y1162D01*
X50800Y20638D02*
X50800Y127000D01*
X-400050Y103188D02*
X-400050Y187325D01*
X-400050Y103188D02*
X-387350Y90488D01*
X-288925Y90488D01*
X-266700Y112713D01*
X-266700Y125838D01*
D15*
X-400050Y187325D03*
D14*
X446088Y898525D02*
X446088Y965200D01*
X446088Y898525D02*
X509588Y835025D01*
X550863Y203200D02*
X544513Y196850D01*
X446088Y965200D02*
X444900Y966400D01*
D15*
X544513Y196850D03*
D14*
X509588Y662748D02*
X509588Y835025D01*
X509588Y662748D02*
X550863Y621473D01*
X550863Y203200D01*
X-495300Y541338D02*
X-495300Y654050D01*
X-495300Y541338D02*
X-550863Y485775D01*
X-550863Y206375D01*
X-373063Y28575D01*
X-166688Y28575D01*
X-494900Y654200D02*
X-495300Y654050D01*
D15*
X-166688Y28575D03*
D14*
X317500Y1588D02*
X457200Y141288D01*
X317500Y1588D02*
X317500Y1162D01*
X446088Y653013D02*
X444900Y654200D01*
X446088Y653013D02*
X446088Y524064D01*
X457200Y512951D02*
X457200Y141288D01*
X457200Y512951D02*
X446088Y524064D01*
X-493713Y425450D02*
X-493713Y296863D01*
X-482600Y285750D01*
X-482600Y174625D01*
X-493713Y425450D02*
X-494900Y425600D01*
D15*
X-482600Y174625D03*
D14*
X-442913Y896938D02*
X-442913Y965200D01*
X-442913Y896938D02*
X-431800Y885825D01*
X-431800Y538163D01*
X-457200Y512763D01*
X-457200Y454025D01*
X-430213Y427038D01*
X-430213Y114300D01*
X-392113Y76200D01*
X-290513Y76200D01*
X-241300Y125413D01*
X-442913Y965200D02*
X-444400Y966400D01*
X-241300Y125838D02*
X-241300Y125413D01*
X215900Y125413D02*
X260350Y80963D01*
X215900Y125413D02*
X215900Y125838D01*
D15*
X260350Y80963D03*
D14*
X-215900Y125413D02*
X-290513Y50800D01*
X-215900Y125413D02*
X-215900Y125838D01*
D15*
X-290513Y50800D03*
D14*
X531813Y219075D02*
X544513Y231775D01*
X446088Y736600D02*
X444900Y737800D01*
D15*
X531813Y219075D03*
D14*
X446088Y719064D02*
X446088Y736600D01*
X544513Y620639D02*
X544513Y231775D01*
X544513Y620639D02*
X446088Y719064D01*
X-190500Y125413D02*
X-258763Y57150D01*
X-190500Y125413D02*
X-190500Y125838D01*
D15*
X-258763Y57150D03*
D14*
X266700Y125413D02*
X293688Y98425D01*
X266700Y125413D02*
X266700Y125838D01*
D15*
X293688Y98425D03*
D14*
X-457200Y160338D02*
X-457200Y320675D01*
X-219075Y69850D02*
X-165100Y123825D01*
X-165100Y125838D01*
D15*
X-457200Y320675D03*
X-457200Y160338D03*
X-219075Y69850D03*
D14*
X400050Y133350D02*
X400050Y196850D01*
X400050Y133350D02*
X373063Y106363D01*
X311150Y106363D01*
X292100Y125413D01*
X292100Y125838D01*
D15*
X400050Y196850D03*
D14*
X-442913Y447675D02*
X-442913Y508000D01*
X-442913Y447675D02*
X-392113Y396875D01*
X-392113Y106363D01*
X-188913Y76200D02*
X-139700Y125413D01*
X-442913Y508000D02*
X-444400Y509200D01*
X-139700Y125838D02*
X-139700Y125413D01*
D15*
X-392113Y106363D03*
X-188913Y76200D03*
D14*
X-133350Y106363D02*
X-114300Y125413D01*
X-114300Y125838D01*
D15*
X-133350Y91059D03*
D14*
X-133350Y106363D01*
X444900Y279800D02*
X444900Y280600D01*
X444900Y279800D02*
X392113Y227013D01*
X392113Y169863D01*
X368300Y146050D01*
X361950Y146050D01*
X342900Y127000D01*
X342900Y125838D01*
X-88900Y125413D02*
X-122238Y92075D01*
X-88900Y125413D02*
X-88900Y125838D01*
D15*
X-122238Y91059D03*
D14*
X-122238Y92075D01*
X-495300Y982663D02*
X-495300Y1111250D01*
X-495300Y982663D02*
X-506413Y971550D01*
X-506413Y682625D01*
X-482600Y658813D01*
X-482600Y546100D01*
X-544513Y484188D01*
X-544513Y207963D01*
X-373063Y36513D01*
X-123825Y36513D01*
X-495300Y1111250D02*
X-494900Y1111400D01*
D15*
X-123825Y36513D03*
D14*
X444500Y982663D02*
X444500Y1111250D01*
X444500Y982663D02*
X433388Y971550D01*
X508000Y141288D02*
X368300Y1588D01*
X444500Y1111250D02*
X444900Y1111400D01*
X368300Y1588D02*
X368300Y1162D01*
X433388Y681764D02*
X433388Y971550D01*
X508000Y607151D02*
X508000Y141288D01*
X508000Y607151D02*
X433388Y681764D01*
X-493713Y754063D02*
X-493713Y882650D01*
X-493713Y754063D02*
X-482600Y742950D01*
X-482600Y666750D01*
X-476250Y660400D01*
X-476250Y544513D01*
X-506413Y514350D01*
X-506413Y177800D01*
X-371475Y42863D01*
X-225425Y42863D01*
X-217488Y50800D01*
X-163513Y50800D01*
X-493713Y882650D02*
X-494900Y882800D01*
D15*
X-163513Y50800D03*
D14*
X482600Y141288D02*
X482600Y325438D01*
X482600Y141288D02*
X342900Y1588D01*
X342900Y1162D01*
D15*
X482600Y325438D03*
D14*
X-292100Y125838D02*
X-292100Y98425D01*
X25400Y127000D02*
X38100Y114300D01*
X38100Y85725D01*
D15*
X-292100Y98425D03*
X38100Y85725D03*
D13*
X-347663Y147638D02*
X-368300Y127000D01*
X-347663Y147638D02*
X-71438Y147638D01*
X-69850Y146050D02*
X-50800Y127000D01*
X-69850Y146050D02*
X-71438Y147638D01*
X-368300Y127000D02*
X-368300Y125838D01*
X77788Y127000D02*
X88900Y127000D01*
X77788Y127000D02*
X57150Y147638D01*
X-68263Y147638D01*
X88900Y127000D02*
X88900Y125838D01*
X-68263Y147638D02*
X-69850Y146050D01*
D14*
X420688Y128588D02*
X420688Y217488D01*
X420688Y128588D02*
X293262Y1162D01*
X292100Y1162D01*
D15*
X420688Y217488D03*
M02*
