G04 EAGLE Gerber RS-274X export*
G75*
%MOMM*%
%FSLAX34Y34*%
%LPD*%
%IN*%
%IPPOS*%
%AMOC8*
5,1,8,0,0,1.08239X$1,22.5*%
G01*
G04 Define Apertures*
%ADD10C,0.254000*%
D10*
X-565000Y125000D02*
X-564429Y111927D01*
X-562721Y98953D01*
X-559889Y86177D01*
X-555954Y73697D01*
X-550946Y61607D01*
X-544904Y50000D01*
X-537873Y38964D01*
X-529907Y28582D01*
X-521066Y18934D01*
X-511418Y10093D01*
X-501036Y2127D01*
X-490000Y-4904D01*
X-478393Y-10946D01*
X-466303Y-15954D01*
X-453823Y-19889D01*
X-441047Y-22721D01*
X-428073Y-24429D01*
X-415000Y-25000D01*
X415000Y-25000D01*
X428073Y-24429D01*
X441047Y-22721D01*
X453823Y-19889D01*
X466303Y-15954D01*
X478393Y-10946D01*
X490000Y-4904D01*
X501037Y2127D01*
X511418Y10093D01*
X521066Y18934D01*
X529907Y28582D01*
X537873Y38964D01*
X544904Y50000D01*
X550946Y61607D01*
X555954Y73697D01*
X559889Y86177D01*
X562721Y98953D01*
X564429Y111927D01*
X565000Y125000D01*
X565000Y1070000D01*
X564619Y1078716D01*
X563481Y1087365D01*
X561593Y1095882D01*
X558969Y1104202D01*
X555631Y1112262D01*
X551603Y1120000D01*
X546915Y1127358D01*
X541604Y1134279D01*
X535711Y1140711D01*
X529279Y1146605D01*
X522358Y1151916D01*
X515000Y1156603D01*
X507262Y1160631D01*
X499202Y1163970D01*
X490882Y1166593D01*
X482365Y1168481D01*
X473716Y1169620D01*
X465000Y1170000D01*
X398450Y1170000D01*
X396707Y1169924D01*
X394977Y1169696D01*
X393274Y1169319D01*
X391610Y1168794D01*
X389998Y1168126D01*
X388450Y1167321D01*
X386978Y1166383D01*
X385594Y1165321D01*
X384308Y1164142D01*
X383129Y1162856D01*
X382067Y1161472D01*
X381130Y1160000D01*
X380324Y1158453D01*
X379656Y1156841D01*
X379131Y1155177D01*
X378754Y1153473D01*
X378526Y1151743D01*
X378450Y1150000D01*
X378450Y222380D01*
X378222Y217151D01*
X377538Y211961D01*
X376406Y206851D01*
X374832Y201859D01*
X372828Y197023D01*
X370412Y192380D01*
X367599Y187965D01*
X364413Y183813D01*
X360876Y179954D01*
X357017Y176417D01*
X352865Y173231D01*
X348450Y170418D01*
X343807Y168002D01*
X338971Y165998D01*
X333979Y164424D01*
X328869Y163292D01*
X323679Y162608D01*
X318450Y162380D01*
X-318450Y162380D01*
X-323679Y162608D01*
X-328869Y163292D01*
X-333979Y164424D01*
X-338971Y165998D01*
X-343807Y168002D01*
X-348450Y170418D01*
X-352865Y173231D01*
X-357017Y176417D01*
X-360876Y179954D01*
X-364413Y183813D01*
X-367599Y187965D01*
X-370412Y192380D01*
X-372828Y197023D01*
X-374832Y201859D01*
X-376406Y206851D01*
X-377538Y211961D01*
X-378222Y217151D01*
X-378450Y222380D01*
X-378450Y1150000D01*
X-378526Y1151743D01*
X-378754Y1153473D01*
X-379131Y1155176D01*
X-379656Y1156840D01*
X-380324Y1158452D01*
X-381130Y1160000D01*
X-382067Y1161472D01*
X-383129Y1162856D01*
X-384308Y1164142D01*
X-385594Y1165321D01*
X-386978Y1166383D01*
X-388450Y1167321D01*
X-389998Y1168126D01*
X-391610Y1168794D01*
X-393274Y1169319D01*
X-394977Y1169696D01*
X-396707Y1169924D01*
X-398450Y1170000D01*
X-465000Y1170000D01*
X-473716Y1169619D01*
X-482365Y1168481D01*
X-490882Y1166593D01*
X-499202Y1163969D01*
X-507262Y1160631D01*
X-515000Y1156603D01*
X-522358Y1151915D01*
X-529279Y1146604D01*
X-535711Y1140711D01*
X-541604Y1134279D01*
X-546915Y1127358D01*
X-551603Y1120000D01*
X-555631Y1112262D01*
X-558969Y1104202D01*
X-561593Y1095882D01*
X-563481Y1087365D01*
X-564619Y1078716D01*
X-565000Y1070000D01*
X-565000Y125000D01*
X-535900Y342600D02*
X-517900Y342600D01*
X-517900Y368600D01*
X-535900Y368600D01*
X-535900Y342600D01*
X-421900Y342600D02*
X-403900Y342600D01*
X-403900Y368600D01*
X-421900Y368600D01*
X-421900Y342600D01*
X-535900Y571200D02*
X-517900Y571200D01*
X-517900Y597200D01*
X-535900Y597200D01*
X-535900Y571200D01*
X-421900Y571200D02*
X-403900Y571200D01*
X-403900Y597200D01*
X-421900Y597200D01*
X-421900Y571200D01*
X-535900Y799800D02*
X-517900Y799800D01*
X-517900Y825800D01*
X-535900Y825800D01*
X-535900Y799800D01*
X-421900Y799800D02*
X-403900Y799800D01*
X-403900Y825800D01*
X-421900Y825800D01*
X-421900Y799800D01*
X-421900Y1028400D02*
X-403900Y1028400D01*
X-403900Y1054400D01*
X-421900Y1054400D01*
X-421900Y1028400D01*
X-535900Y1028400D02*
X-517900Y1028400D01*
X-517900Y1054400D01*
X-535900Y1054400D01*
X-535900Y1028400D01*
X403900Y799800D02*
X421900Y799800D01*
X421900Y825800D01*
X403900Y825800D01*
X403900Y799800D01*
X403900Y342600D02*
X421900Y342600D01*
X421900Y368600D01*
X403900Y368600D01*
X403900Y342600D01*
X517900Y571200D02*
X535900Y571200D01*
X535900Y597200D01*
X517900Y597200D01*
X517900Y571200D01*
X403900Y571200D02*
X421900Y571200D01*
X421900Y597200D01*
X403900Y597200D01*
X403900Y571200D01*
X517900Y342600D02*
X535900Y342600D01*
X535900Y368600D01*
X517900Y368600D01*
X517900Y342600D01*
X517900Y799800D02*
X535900Y799800D01*
X535900Y825800D01*
X517900Y825800D01*
X517900Y799800D01*
X403900Y1028400D02*
X421900Y1028400D01*
X421900Y1054400D01*
X403900Y1054400D01*
X403900Y1028400D01*
X517900Y1028400D02*
X535900Y1028400D01*
X535900Y1054400D01*
X517900Y1054400D01*
X517900Y1028400D01*
X403900Y342600D02*
X421900Y342600D01*
X421900Y368600D01*
X403900Y368600D01*
X403900Y342600D01*
X517900Y342600D02*
X535900Y342600D01*
X535900Y368600D01*
X517900Y368600D01*
X517900Y342600D01*
X403900Y571200D02*
X421900Y571200D01*
X421900Y597200D01*
X403900Y597200D01*
X403900Y571200D01*
X517900Y571200D02*
X535900Y571200D01*
X535900Y597200D01*
X517900Y597200D01*
X517900Y571200D01*
X403900Y799800D02*
X421900Y799800D01*
X421900Y825800D01*
X403900Y825800D01*
X403900Y799800D01*
X517900Y799800D02*
X535900Y799800D01*
X535900Y825800D01*
X517900Y825800D01*
X517900Y799800D01*
X403900Y1028400D02*
X421900Y1028400D01*
X421900Y1054400D01*
X403900Y1054400D01*
X403900Y1028400D01*
X517900Y1028400D02*
X535900Y1028400D01*
X535900Y1054400D01*
X517900Y1054400D01*
X517900Y1028400D01*
X-535900Y342600D02*
X-517900Y342600D01*
X-517900Y368600D01*
X-535900Y368600D01*
X-535900Y342600D01*
X-421900Y342600D02*
X-403900Y342600D01*
X-403900Y368600D01*
X-421900Y368600D01*
X-421900Y342600D01*
X-535900Y571200D02*
X-517900Y571200D01*
X-517900Y597200D01*
X-535900Y597200D01*
X-535900Y571200D01*
X-421900Y571200D02*
X-403900Y571200D01*
X-403900Y597200D01*
X-421900Y597200D01*
X-421900Y571200D01*
X-535900Y799800D02*
X-517900Y799800D01*
X-517900Y825800D01*
X-535900Y825800D01*
X-535900Y799800D01*
X-421900Y799800D02*
X-403900Y799800D01*
X-403900Y825800D01*
X-421900Y825800D01*
X-421900Y799800D01*
X-421900Y1028400D02*
X-403900Y1028400D01*
X-403900Y1054400D01*
X-421900Y1054400D01*
X-421900Y1028400D01*
X-535900Y1028400D02*
X-517900Y1028400D01*
X-517900Y1054400D01*
X-535900Y1054400D01*
X-535900Y1028400D01*
M02*
