M48
;GenerationSoftware,Autodesk,EAGLE,9.7.0*%
;CreationDate,2023-06-05T03:33:54Z*%
FMAT,2
ICI,OFF
METRIC,TZ,000.000
T4C0.305
T3C1.000
T2C1.016
T1C1.800
%
G90
M71
T1
X41290Y104140
X52690Y104140
X52690Y81280
X-52690Y81280
X-41290Y81280
X-52690Y35560
X-41290Y35560
X41290Y58420
X52690Y35560
X41290Y35560
X-52690Y58420
X-41290Y58420
X-52690Y104140
X-41290Y104140
X52690Y58420
X41290Y81280
T2
X-13970Y12584
X-19050Y12584
X-21590Y12584
X-24130Y12584
X-26670Y12584
X-29210Y12584
X-31750Y12584
X-34290Y12584
X-36830Y12584
X-8890Y116
X-11430Y116
X-13970Y116
X-16510Y116
X-19050Y116
X-21590Y116
X-24130Y116
X-16510Y12584
X-26670Y116
X-29210Y116
X-31750Y116
X-34290Y116
X-36830Y116
X36830Y12584
X34290Y12584
X31750Y12584
X29210Y12584
X26670Y12584
X24130Y12584
X21590Y12584
X19050Y12584
X16510Y12584
X13970Y12584
X11430Y12584
X8890Y12584
X34290Y116
X31750Y116
X29210Y116
X26670Y116
X24130Y116
X21590Y116
X19050Y116
X16510Y116
X13970Y116
X11430Y116
X8890Y116
X-5080Y12700
X-2540Y12700
X0Y12700
X2540Y12700
X5080Y12700
X36830Y116
X-8890Y12584
X-11430Y12584
T3
X-44440Y73780
X-49490Y42560
X-44490Y42560
X46990Y96640
X44490Y96640
X49540Y96640
X44490Y111140
X-44490Y88280
X49490Y111140
X46990Y73780
X44490Y73780
X49540Y73780
X49540Y50920
X44490Y65420
X49490Y65420
X44490Y50920
X46990Y50920
X46990Y28060
X44490Y28060
X49540Y28060
X44490Y42560
X49490Y42560
X-46990Y96640
X-49490Y96640
X-44440Y96640
X-49490Y111140
X-44490Y111140
X-46990Y73780
X-49490Y73780
X44490Y88280
X-49490Y88280
X49490Y88280
X-46990Y50920
X-49490Y50920
X-44440Y50920
X-49490Y65420
X-44490Y65420
X-46990Y28060
X-49490Y28060
X-44440Y28060
T4
X54451Y19685
X-16669Y2857
X-48260Y17463
X26035Y8096
X-29051Y5080
X53181Y21907
X29369Y9843
X-45720Y32067
X-45720Y16034
X-21907Y6985
X40005Y19685
X-39211Y10636
X-18891Y7620
X-13335Y9106
X-12382Y3651
X-16351Y5080
X48260Y32544
X-29210Y9843
X3810Y8573
X42069Y21749
X-12224Y9106
X-25876Y5715
X-40005Y18733
M30